<svg xmlns="http://www.w3.org/2000/svg" width="13.622" height="24" viewBox="0 0 13.622 24">
    <path id="prefix__facebook" fill="#fff" d="M8.914 24H5.071a1.165 1.165 0 0 1-1.164-1.164v-8.669H1.664A1.166 1.166 0 0 1 .5 13V9.288a1.165 1.165 0 0 1 1.164-1.164h2.243V6.263a6.334 6.334 0 0 1 1.674-4.537A6.032 6.032 0 0 1 10.029 0h2.931a1.166 1.166 0 0 1 1.162 1.164v3.454a1.165 1.165 0 0 1-1.164 1.164h-1.973c-.6 0-.755.121-.788.158-.054.061-.118.235-.118.714v1.47h2.731a1.183 1.183 0 0 1 .576.146 1.168 1.168 0 0 1 .6 1.018V13a1.165 1.165 0 0 1-1.164 1.164h-2.743v8.669A1.166 1.166 0 0 1 8.914 24zm-3.6-1.407h3.357v-9.056a.778.778 0 0 1 .777-.777h3.128V9.531H9.449a.778.778 0 0 1-.777-.777v-2.1a2.4 2.4 0 0 1 .471-1.645 2.385 2.385 0 0 1 1.842-.634h1.731V1.411h-2.687c-2.907 0-4.714 1.861-4.714 4.857v2.49a.778.778 0 0 1-.777.777H1.907v3.225h2.63a.778.778 0 0 1 .777.777zm7.643-21.182zm0 0" transform="translate(-.5)"/>
</svg>
