<svg xmlns="http://www.w3.org/2000/svg" width="25" height="23.022" viewBox="0 0 25 23.022">
    <g id="prefix__heart" transform="translate(0 -20.259)">
        <g id="prefix__Group_5" data-name="Group 5" transform="translate(0 20.259)">
            <path id="prefix__Path_6" fill="#22aea5" d="M22.788 22.5a7.747 7.747 0 0 0-10.264-.565A7.745 7.745 0 0 0 7.7 20.259a7.7 7.7 0 0 0-5.458 13.136l9.622 9.622a.9.9 0 0 0 1.271 0l9.63-9.6a7.812 7.812 0 0 0 .023-10.917zm-1.3 9.651L12.5 41.11l-8.987-8.987A5.89 5.89 0 0 1 7.7 22.058a5.978 5.978 0 0 1 4.2 1.722.9.9 0 0 0 1.264-.007 5.94 5.94 0 0 1 8.343-.007 6.013 6.013 0 0 1-.022 8.386z" data-name="Path 6" transform="translate(0 -20.259)"/>
        </g>
    </g>
</svg>
