<svg xmlns="http://www.w3.org/2000/svg" width="25" height="25.049" viewBox="0 0 25 25.049">
    <path id="prefix__signs" fill="#22aea5" d="M5.86 10.01a4.155 4.155 0 0 0 4.15 4.15.977.977 0 1 1 0 1.953 6.1 6.1 0 1 1 6.1-6.1.977.977 0 0 1-1.953 0 4.15 4.15 0 1 0-8.3 0zm.767 8.638C4.121 15.9 1.957 13.534 1.953 10a8.057 8.057 0 0 1 16.113 0 .976.976 0 0 0 .977.975.976.976 0 0 0 .977-.975A10.01 10.01 0 0 0 2.936 2.928 9.946 9.946 0 0 0 0 10a10.458 10.458 0 0 0 1.653 5.582 29.717 29.717 0 0 0 3.532 4.382 33.339 33.339 0 0 1 3.707 4.581.977.977 0 1 0 1.651-1.045 34.845 34.845 0 0 0-3.916-4.854zm18.117.469a.977.977 0 0 1-1.38.062l-.122-.112V22.3a2.753 2.753 0 0 1-2.749 2.751h-5.488a2.753 2.753 0 0 1-2.749-2.751v-3.189l-.073.067a.977.977 0 1 1-1.318-1.442l5.04-4.608a2.755 2.755 0 0 1 3.737 0l3.23 2.953a.978.978 0 0 1 .1.092l1.71 1.564a.976.976 0 0 1 .062 1.38zm-3.455-1.836l-2.965-2.711a.812.812 0 0 0-1.1 0l-3.014 2.755V22.3a.8.8 0 0 0 .8.8h5.488a.8.8 0 0 0 .8-.8zm0 0"/>
</svg>
