<svg xmlns="http://www.w3.org/2000/svg" id="prefix__tick" width="30" height="30" viewBox="0 0 30 30">
    <defs>
        <style>
            .prefix__cls-1{fill:#1dac54}
        </style>
    </defs>
    <g id="prefix__Group_58" data-name="Group 58" transform="translate(7.123 3.769)">
        <g id="prefix__Group_57" data-name="Group 57">
            <path id="prefix__Path_29" d="M143.587 64.659a1.13 1.13 0 0 0-1.6 0l-13.563 13.527-4.894-5.315a1.131 1.131 0 0 0-1.664 1.532l5.691 6.181a1.129 1.129 0 0 0 .808.364h.024a1.132 1.132 0 0 0 .8-.33l14.4-14.359a1.13 1.13 0 0 0-.002-1.6z" class="prefix__cls-1" data-name="Path 29" transform="translate(-121.568 -64.327)"/>
        </g>
    </g>
    <g id="prefix__Group_60" data-name="Group 60">
        <g id="prefix__Group_59" data-name="Group 59">
            <path id="prefix__Path_30" d="M28.869 13.869A1.131 1.131 0 0 0 27.739 15 12.739 12.739 0 1 1 15 2.261 1.131 1.131 0 1 0 15 0a15 15 0 1 0 15 15 1.131 1.131 0 0 0-1.131-1.131z" class="prefix__cls-1" data-name="Path 30"/>
        </g>
    </g>
</svg>
