<svg xmlns="http://www.w3.org/2000/svg" width="24" height="24" viewBox="0 0 24 24">
    <path id="prefix__ui" fill="#fff" d="M23.789 9.759a.7.7 0 0 0-.691-.572H12a.7.7 0 0 0-.7.7v4.219a.7.7 0 0 0 .7.7h5.669A6.466 6.466 0 0 1 15.892 17a.7.7 0 0 0-.172.126l-.015.017A6.27 6.27 0 0 1 12 18.375a6.375 6.375 0 1 1 0-12.75 6.3 6.3 0 0 1 3.794 1.314.7.7 0 0 0 .92-.065l3-3a.7.7 0 0 0-.045-1.036 11.977 11.977 0 1 0 .8 17.634 11.951 11.951 0 0 0 3.32-10.713zM12 1.406a10.519 10.519 0 0 1 6.158 2.035l-2.022 2.023A7.6 7.6 0 0 0 12 4.219 7.722 7.722 0 0 0 6.51 6.51a7.9 7.9 0 0 0-1.377 1.847L3.075 6.3A10.6 10.6 0 0 1 12 1.406zM2.371 7.585l2.178 2.177a7.738 7.738 0 0 0 0 4.475l-2.178 2.178a10.582 10.582 0 0 1 0-8.831zm.7 10.116l2.059-2.059a7.9 7.9 0 0 0 1.38 1.848A7.722 7.722 0 0 0 12 19.781a7.584 7.584 0 0 0 4.151-1.23l2.04 2.04A10.581 10.581 0 0 1 3.075 17.7zm16.2 1.989l-2.013-2.013a7.917 7.917 0 0 0 2.114-3.356.7.7 0 0 0-.671-.914h-6v-2.813h9.8a10.585 10.585 0 0 1-3.222 9.1z"/>
</svg>
